<svg width="634" height="786" viewBox="0 0 634 786" fill="none" xmlns="http://www.w3.org/2000/svg">
<path opacity="0.1" d="M325.589 160.719L219.021 175.185L245.591 370.923L354.334 356.162C384.782 352.029 408.563 339.572 425.676 318.791C442.692 297.285 449.231 272.033 445.295 243.035C440.867 210.412 428.145 187.405 407.132 174.015C386.118 160.625 358.937 156.193 325.589 160.719ZM100.375 786.001L0 46.5479L311.005 4.33116C392.925 -6.78886 466.677 3.50343 532.261 35.2081C598.471 66.0894 637.628 126.115 649.732 215.284C655.833 260.231 651.674 300.296 637.253 335.477C623.557 370.56 603.226 400.268 576.258 424.602L778.932 693.892L549.484 725.038L398.278 508.565L266.699 526.426L298.288 759.136L100.375 786.001Z" fill="#FF801F"/>
</svg>
